<svg width="64" height="64" viewBox="0 0 64 64" xmlns="http://www.w3.org/2000/svg" shape-rendering="crispEdges">
  <defs>
    <clipPath id="moss-block">
      <rect x="9" y="9" width="46" height="46" rx="13" />
    </clipPath>
  </defs>
  <g clip-path="url(#moss-block)">
    <rect x="9" y="9" width="46" height="46" fill="#4f8f2f" />
    <rect x="9" y="9" width="46" height="14" fill="#6eaa43" />
    <rect x="9" y="23" width="46" height="32" fill="#3f7f28" />
    <rect x="41" y="23" width="14" height="32" fill="#32651f" />
    <rect x="9" y="23" width="10" height="32" fill="#559537" />
    <rect x="17" y="13" width="9" height="7" fill="#8cc456" />
    <rect x="35" y="13" width="10" height="7" fill="#7db84d" />
    <rect x="26" y="20" width="9" height="5" fill="#4d8a2d" />
    <rect x="15" y="27" width="9" height="8" fill="#5f9f38" />
    <rect x="24" y="27" width="9" height="8" fill="#2f6f20" />
    <rect x="33" y="27" width="9" height="8" fill="#6eaa43" />
    <rect x="42" y="27" width="9" height="8" fill="#477f29" />
    <rect x="18" y="35" width="9" height="9" fill="#356f22" />
    <rect x="27" y="35" width="9" height="9" fill="#70a944" />
    <rect x="36" y="35" width="9" height="9" fill="#4b8b2c" />
    <rect x="16" y="44" width="9" height="7" fill="#2f631f" />
    <rect x="25" y="44" width="10" height="11" fill="#5d9738" />
    <rect x="35" y="44" width="10" height="11" fill="#376f23" />
    <rect x="45" y="44" width="10" height="7" fill="#6ba341" />
  </g>
</svg>
